<svg width="42" height="42" viewBox="0 0 42 42" fill="none" xmlns="http://www.w3.org/2000/svg" role="img">
  <title>Content Management Systems</title>
  <desc>Content Management Systems icon</desc>
  <path fill-rule="evenodd" clip-rule="evenodd" d="M17 8H20V17H17V20H8V17H0V25H3.30005V34H0V42H8V34H5.50005V25H8V22H17V25H25V22H34V25H36.7V34H34V37H25V34H17V42H25V39H34V42H42V34H38.9V25H42V17H34V20H25V17H22V8H25V0H17V8ZM23 2H19V6H23V2ZM6 23V19H2V23H6ZM2 36V40H6V36H2ZM36 36H40V40H36V36ZM23 36V40H19V36H23ZM40 23V19H36V23H40ZM19 23H23V19H19V23Z" fill="#C7A21E"/>
</svg>
