<svg width="30" height="30" viewBox="0 0 30 30" fill="none" xmlns="http://www.w3.org/2000/svg" aria-hidden="true">
  <path fill-rule="evenodd" clip-rule="evenodd" d="M30 15C30 23.2843 23.2843 30 15 30C6.71573 30 0 23.2843 0 15C0 6.71573 6.71573 0 15 0C23.2843 0 30 6.71573 30 15ZM22.6594 16.7908C22.4242 18.0606 20.5529 19.4502 18.4037 19.7195C17.2829 19.8598 16.1795 19.9888 15.0029 19.9322C13.0786 19.8396 11.5602 19.4502 11.5602 19.4502C11.5602 19.6467 11.5718 19.8339 11.5949 20.009C11.845 22.0018 13.4779 22.1212 15.0247 22.1768C16.5859 22.2329 17.976 21.7729 17.976 21.7729L18.0401 23.254C18.0401 23.254 16.9481 23.8693 15.0029 23.9825C13.9302 24.0443 12.5983 23.9541 11.047 23.5233C7.68257 22.5888 7.10396 18.8253 7.01542 15.0067C6.99558 14.1731 6.99932 13.3744 7.00269 12.6546V12.6546C7.00391 12.3954 7.00507 12.1464 7.00507 11.9097C7.00507 8.00494 9.44308 6.86039 9.44308 6.86039C10.6724 6.26795 12.7818 6.01881 14.9747 6H15.0286C17.2215 6.01881 19.3323 6.26795 20.5615 6.86039C20.5615 6.86039 22.9994 8.00494 22.9994 11.9097C22.9994 11.9097 23.03 14.7906 22.6594 16.7908ZM20.1236 12.2127V16.9407H18.3386V12.3517C18.3386 11.3843 17.9507 10.8933 17.1749 10.8933C16.3171 10.8933 15.8872 11.4758 15.8872 12.6275V15.1394H14.1127V12.6275C14.1127 11.4758 13.6827 10.8933 12.8249 10.8933C12.0491 10.8933 11.6612 11.3843 11.6612 12.3517V16.9407H9.87622V12.2127C9.87622 11.2464 10.1107 10.4786 10.5816 9.91046C11.0673 9.34236 11.7033 9.05113 12.4928 9.05113C13.4062 9.05113 14.0979 9.41955 14.5553 10.1565L14.9999 10.9386L15.4446 10.1565C15.9019 9.41955 16.5936 9.05113 17.5071 9.05113C18.2965 9.05113 18.9325 9.34236 19.4183 9.91046C19.8891 10.4786 20.1236 11.2464 20.1236 12.2127Z" fill="currentColor" />
</svg>