<svg width="30" height="30" viewBox="0 0 30 30" fill="none" xmlns="http://www.w3.org/2000/svg">
  <title>Dribbble</title>
  <desc>Dribbble icon</desc>
  <path fill-rule="evenodd" clip-rule="evenodd" d="M15 30c8.284 0 15-6.716 15-15 0-8.284-6.716-15-15-15C6.716 0 0 6.716 0 15c0 8.284 6.716 15 15 15zm2.552-14.188c2.194-.35 4.12.224 4.36.3a7.012 7.012 0 0 1-3 4.691c-.072-.426-.445-2.475-1.36-4.99zm-1.357.34l.046-.016c.983 2.553 1.39 4.694 1.494 5.308a6.964 6.964 0 0 1-2.734.556 6.966 6.966 0 0 1-4.297-1.477c.125-.258 1.543-2.996 5.491-4.372zm-1.575-3.439c-3.275.87-6.159.857-6.472.853a7.026 7.026 0 0 1 3.876-4.9 44.63 44.63 0 0 1 2.596 4.047zm2.355 1.635a21.603 21.603 0 0 0-.465-1.014c2.588-1.057 3.762-2.56 3.91-2.76a6.967 6.967 0 0 1 1.58 4.36c-.23-.049-2.545-.518-4.875-.225l-.15-.361zm-1.485.713c-3.61 1.167-5.532 4.348-5.69 4.62a6.972 6.972 0 0 1-1.796-4.895c.306.007 3.698.05 7.194-.996.2.393.392.79.568 1.188a7.627 7.627 0 0 0-.276.084zm4.151-5.297c-.126.18-1.18 1.596-3.669 2.529a37.363 37.363 0 0 0-2.612-4.098 6.993 6.993 0 0 1 6.281 1.57z" fill="currentColor"/>
</svg>
