<svg width="42" height="42" viewBox="0 0 42 42" fill="none" xmlns="http://www.w3.org/2000/svg" role="img">
  <title>Content Management Systems</title>
  <desc>Content Management Systems icon</desc>
  <g fill="#C7A21E">
    <path d="M28.4999 17L30.367 17.7005L27.5001 25L25.6329 24.2995L28.4999 17Z"/>
    <path d="M34 18.068H32L34 21L32 23.9321H34L36 21L34 18.068Z"/>
    <path d="M22 18.068H24L22 21L24 23.9321H22L20 21L22 18.068Z"/>
    <path d="M5 5H11V7H5V5Z"/>
    <path d="M11 9H5V11H11V9Z"/>
    <path d="M5 13H11V15H5V13Z"/>
    <path d="M11 17H5V19H11V17Z"/>
    <path d="M5 21H11V23H5V21Z"/>
    <path d="M11 25H5V27H11V25Z"/>
    <path fill-rule="evenodd" clip-rule="evenodd" d="M40 0C41.1046 0 42 0.895431 42 2V40C42 41.1046 41.1046 42 40 42H2C0.895431 42 0 41.1046 0 40V2C0 0.89543 0.895431 0 2 0H40ZM16 2H40V40H16V2ZM14 40H2V2H14V40Z"/>
  </g>
</svg>
