<svg width="30" height="30" viewBox="0 0 30 30" fill="none" xmlns="http://www.w3.org/2000/svg">
  <title>Github</title>
  <desc>Github icon</desc>
  <path fill-rule="evenodd" clip-rule="evenodd" d="M30 15c0 8.284-6.716 15-15 15-8.284 0-15-6.716-15-15C0 6.716 6.716 0 15 0c8.284 0 15 6.716 15 15zm-10.575 1.267c.383.466.575 1.033.575 1.7 0 .488-.09.915-.267 1.279-.177.364-.402.65-.675.858a3.226 3.226 0 0 1-1.016.5 6.12 6.12 0 0 1-1.167.246c-.372.039-.786.058-1.242.058h-1.4c-.456 0-.87-.02-1.242-.058a6.13 6.13 0 0 1-1.166-.246 3.22 3.22 0 0 1-1.017-.5 2.356 2.356 0 0 1-.675-.858c-.178-.364-.266-.79-.266-1.28 0-.666.191-1.233.575-1.7.383-.466.902-.7 1.558-.7.239 0 .78.059 1.625.176.394.06.83.091 1.308.091.478 0 .914-.03 1.309-.091.855-.117 1.397-.175 1.625-.175.655 0 1.175.233 1.558.7zm1.933 2.991c.34-.689.508-1.608.508-2.758v-.001c0-1.322-.377-2.428-1.133-3.317.15-.45.225-.916.225-1.4 0-.644-.141-1.25-.425-1.816-.594 0-1.12.108-1.575.325-.455.216-.975.553-1.558 1.008a9.885 9.885 0 0 0-2.333-.266c-.9 0-1.759.097-2.575.291-.595-.466-1.12-.81-1.575-1.029-.456-.22-.984-.329-1.584-.329a4.007 4.007 0 0 0-.425 1.817c0 .489.075.961.225 1.417C8.377 14.083 8 15.183 8 16.5c0 1.155.172 2.075.516 2.758.183.361.422.68.717.958.295.278.63.503 1.008.675a8.82 8.82 0 0 0 1.142.43 7.36 7.36 0 0 0 1.27.25 19.023 19.023 0 0 0 2.413.129c.511 0 .975-.012 1.392-.037a12.53 12.53 0 0 0 1.43-.184 7.115 7.115 0 0 0 1.416-.395c.409-.167.8-.406 1.175-.717a3.36 3.36 0 0 0 .88-1.109zm-8.129-1.975c.07.234.105.461.105.684 0 .222-.035.45-.105.683a1.63 1.63 0 0 1-.358.633.786.786 0 0 1-1.209 0 1.63 1.63 0 0 1-.358-.633 2.39 2.39 0 0 1-.104-.683c0-.223.035-.45.104-.684.07-.233.189-.444.358-.633a.786.786 0 0 1 1.209 0c.17.189.29.4.358.633zm5.334 0c.069.234.104.461.104.684 0 .222-.035.45-.105.683a1.64 1.64 0 0 1-.358.633.787.787 0 0 1-1.209 0 1.64 1.64 0 0 1-.358-.633 2.39 2.39 0 0 1-.104-.683c0-.223.035-.45.104-.684.07-.233.189-.444.358-.633a.786.786 0 0 1 1.21 0c.169.189.288.4.358.633z" fill="currentColor"/>
</svg>
