<svg width="30" height="30" viewBox="0 0 30 30" fill="none" xmlns="http://www.w3.org/2000/svg" aria-hidden="true">
  <path fill-rule="evenodd" clip-rule="evenodd" d="M30 15C30 23.2843 23.2843 30 15 30C6.71573 30 0 23.2843 0 15C0 6.71573 6.71573 0 15 0C23.2843 0 30 6.71573 30 15ZM11.626 20C12.5235 20 13.2515 19.273 13.2515 18.376C13.2515 17.479 12.5235 16.7525 11.626 16.752C10.728 16.752 10 17.479 10 18.376C10 19.273 10.728 20 11.626 20ZM10 14.4955V12.09C14.3605 12.121 17.8885 15.645 17.9195 20H15.511C15.48 16.9785 13.025 14.5265 10 14.4955ZM19.5915 20C19.576 14.703 15.29 10.429 10 10.406V8C16.6225 8.023 21.985 13.3845 22 20H19.5915Z" fill="currentColor" />
</svg>