<svg width="128" height="24" viewBox="0 0 128 24" fill="none" xmlns="http://www.w3.org/2000/svg" role="img">
  <title>Webstoemp</title>
  <desc>Logo</desc>
  <path d="M6.672 18.12L2.136 3.456.312 2.544V2.16h6.96v.384l-2.016.912 2.856 9.696h.096L12.384 2.04h1.2l4.2 11.112h.12l2.856-9.696-2.04-.912V2.16h5.376v.384l-1.608.84L17.88 18.12h-1.176l-4.32-11.112h-.144L7.824 18.12H6.672zm23.31.12c-1.6 0-2.872-.472-3.816-1.416-.928-.944-1.392-2.2-1.392-3.768 0-1.216.256-2.288.768-3.216.512-.928 1.184-1.656 2.016-2.184a5.208 5.208 0 0 1 2.808-.792c1.28 0 2.28.44 3 1.32.72.88 1.088 2.12 1.104 3.72l-.096.12h-6.912c0 .72.128 1.384.384 1.992a3.187 3.187 0 0 0 1.248 1.44c.576.352 1.336.528 2.28.528.448 0 .928-.064 1.44-.192a6.907 6.907 0 0 0 1.608-.648h.072v.336c-.384.784-.968 1.44-1.752 1.968s-1.704.792-2.76.792zm-.096-10.296c-.64 0-1.168.264-1.584.792-.416.528-.68 1.264-.792 2.208h4.632c-.144-1.104-.408-1.88-.792-2.328a1.844 1.844 0 0 0-1.464-.672zm7.832 10.2V2.736L36.229 1.56v-.24L40.261 0h.24v8.328h.12c.593-.496 1.16-.864 1.704-1.104a4.52 4.52 0 0 1 1.8-.36 3.44 3.44 0 0 1 2.04.648c.624.416 1.12 1.016 1.489 1.8.367.768.551 1.688.551 2.76 0 1.296-.255 2.408-.767 3.336a5.294 5.294 0 0 1-2.04 2.112c-.849.48-1.785.72-2.809.72a8.22 8.22 0 0 1-1.944-.216 5.342 5.342 0 0 1-1.584-.6l-1.103.72h-.24zm4.703-9.432c-.608 0-1.248.192-1.92.576v6.864c.608.592 1.352.888 2.233.888.463 0 .904-.136 1.32-.408.415-.272.752-.728 1.008-1.368.256-.64.384-1.512.384-2.616 0-1.36-.304-2.352-.913-2.976-.608-.64-1.312-.96-2.111-.96zM54.26 18.24c-.785 0-1.457-.072-2.017-.216a8.942 8.942 0 0 1-1.68-.624v-2.76h.336l.816 1.296c.56.88 1.376 1.32 2.448 1.32.624 0 1.104-.128 1.44-.384.336-.272.504-.64.504-1.104 0-.4-.096-.712-.288-.936-.192-.24-.496-.456-.912-.648a47.87 47.87 0 0 0-1.536-.696c-.864-.368-1.512-.784-1.944-1.248-.432-.48-.648-1.096-.648-1.848 0-.656.168-1.248.504-1.776a3.672 3.672 0 0 1 1.392-1.272 3.975 3.975 0 0 1 1.92-.48c.56 0 1.096.064 1.608.192s1.024.32 1.536.576v2.76h-.36l-.768-1.176c-.56-.88-1.232-1.32-2.016-1.32-.496 0-.904.128-1.224.384-.304.24-.456.592-.456 1.056 0 .464.168.832.504 1.104.352.272.976.592 1.872.96.448.208.896.424 1.344.648.448.224.816.544 1.104.96.304.416.456 1 .456 1.752 0 .736-.2 1.368-.6 1.896-.384.512-.88.904-1.488 1.176a4.486 4.486 0 0 1-1.848.408zm10.408 0c-.864 0-1.592-.208-2.184-.624-.576-.416-.864-1-.864-1.752V8.208h-1.824v-.24l2.16-.864 2.112-2.64h.336v2.64h3.264v1.104h-3.264v7.128c0 .4.176.704.528.912.352.192.776.288 1.272.288a6.94 6.94 0 0 0 1.512-.168l.072.024v.336c-.224.368-.616.712-1.176 1.032-.56.32-1.208.48-1.944.48zm10.204 0c-1.088 0-2.056-.256-2.904-.768a5.406 5.406 0 0 1-1.944-2.04c-.464-.864-.696-1.824-.696-2.88 0-1.056.232-2.008.696-2.856a5.358 5.358 0 0 1 1.944-2.064c.848-.512 1.816-.768 2.904-.768 1.104 0 2.072.256 2.904.768.832.512 1.48 1.2 1.944 2.064.464.848.696 1.8.696 2.856 0 1.056-.232 2.016-.696 2.88a5.406 5.406 0 0 1-1.944 2.04c-.832.512-1.8.768-2.904.768zm.288-1.128c.544 0 .984-.192 1.32-.576.352-.384.608-.888.768-1.512.16-.624.24-1.288.24-1.992 0-.864-.104-1.68-.312-2.448-.192-.784-.496-1.416-.912-1.896-.416-.48-.96-.72-1.632-.72-.544 0-.992.192-1.344.576-.352.384-.616.888-.792 1.512a7.995 7.995 0 0 0-.24 1.992c0 .864.096 1.68.288 2.448.208.768.528 1.4.96 1.896.432.48.984.72 1.656.72zm12.713 1.128c-1.6 0-2.872-.472-3.816-1.416-.928-.944-1.392-2.2-1.392-3.768 0-1.216.256-2.288.768-3.216.512-.928 1.184-1.656 2.016-2.184a5.208 5.208 0 0 1 2.808-.792c1.28 0 2.28.44 3 1.32.72.88 1.088 2.12 1.104 3.72l-.096.12h-6.912c0 .72.128 1.384.384 1.992a3.187 3.187 0 0 0 1.248 1.44c.576.352 1.336.528 2.28.528.448 0 .928-.064 1.44-.192a6.907 6.907 0 0 0 1.608-.648h.072v.336c-.384.784-.968 1.44-1.752 1.968s-1.704.792-2.76.792zm-.096-10.296c-.64 0-1.168.264-1.584.792-.416.528-.68 1.264-.792 2.208h4.632c-.144-1.104-.408-1.88-.792-2.328a1.844 1.844 0 0 0-1.464-.672zM94.334 18v-.384l1.56-.768V9.6l-1.488-1.08v-.24l3.792-1.416h.24l.216 1.776h.12c.576-.576 1.128-1.016 1.656-1.32.544-.304 1.168-.456 1.872-.456.768 0 1.424.176 1.968.528.56.336.928.84 1.104 1.512h.072c.64-.656 1.24-1.16 1.8-1.512.576-.352 1.24-.528 1.992-.528.928 0 1.688.248 2.28.744.592.496.888 1.216.888 2.16v7.08l1.56.768V18h-5.76v-.384l1.416-.768V10.8c0-.608-.176-1.072-.528-1.392-.352-.336-.808-.504-1.368-.504-.432 0-.848.08-1.248.24a2.69 2.69 0 0 0-1.008.624v7.08l1.392.768V18h-5.52v-.384l1.344-.768V10.8c0-.608-.176-1.072-.528-1.392-.352-.336-.808-.504-1.368-.504a3.71 3.71 0 0 0-1.128.192 3.044 3.044 0 0 0-.984.528v7.224l1.32.768V18h-5.664zm21.211 5.52v-.384l1.56-.768V9.696l-1.488-1.176v-.24l3.792-1.416h.24l.192 1.464h.144c.592-.512 1.168-.88 1.728-1.104a4.52 4.52 0 0 1 1.8-.36 3.44 3.44 0 0 1 2.04.648c.624.416 1.12 1.016 1.488 1.8.368.768.552 1.688.552 2.76 0 1.296-.256 2.408-.768 3.336-.496.912-1.168 1.616-2.016 2.112-.832.48-1.744.72-2.736.72-.832 0-1.56-.08-2.184-.24v4.368l1.8.768v.384h-6.144zm6.264-14.808c-.608 0-1.248.192-1.92.576v6.864c.624.592 1.416.888 2.376.888.448 0 .864-.128 1.248-.384s.696-.688.936-1.296c.256-.624.384-1.472.384-2.544 0-1.408-.304-2.44-.912-3.096-.608-.672-1.312-1.008-2.112-1.008z" fill="currentColor"/>
</svg>
