<?xml version="1.0" encoding="UTF-8"?><!DOCTYPE svg PUBLIC "-//W3C//DTD SVG 1.1//EN" "http://www.w3.org/Graphics/SVG/1.1/DTD/svg11.dtd"><svg xmlns="http://www.w3.org/2000/svg"><symbol id="icon_email_white" viewBox="0 0 14 10"><title>icon_email</title><path d="M.17 4.17c-.202.068-.248.23-.006.32l2.723 1.014 1.614.6L12.38.73c.104-.072.227.063.15.14-.076.08-5.645 5.677-5.645 5.677l-.325.335.43.215s3.334 1.67 3.572 1.788c.208.104.48.017.54-.223.07-.285 2.04-8.175 2.084-8.35.057-.228-.105-.367-.352-.287L.17 4.17zM4.488 9.71c0 .165.1.21.237.094.18-.152 2.043-1.707 2.043-1.707l-2.28-1.097v2.71z" fill="#FFF" fill-rule="evenodd"/></symbol><symbol id="icon_round_dribbble" viewBox="0 0 18 18"><title>icon_round_dribbble</title><path d="M9 18c4.97 0 9-4.03 9-9s-4.03-9-9-9-9 4.03-9 9 4.03 9 9 9zm3.978-13.488c-.108.154-1.01 1.368-3.145 2.167-.983-1.81-2.073-3.29-2.24-3.516C8.046 3.054 8.517 3 9 3c1.525 0 2.918.572 3.978 1.512zM9.42 9.052c-3.095 1-4.74 3.727-4.877 3.96C3.583 11.948 3 10.542 3 9c0-.06 0-.122.003-.183.263.005 3.17.043 6.167-.854.172.336.336.677.486 1.018l-.236.075zm1.273-.61c-.125-.294-.26-.585-.4-.87 2.22-.906 3.226-2.195 3.352-2.366.836 1.02 1.342 2.32 1.355 3.737-.198-.042-2.182-.444-4.178-.193-.042-.103-.085-.206-.13-.31zM8.673 7.04c-2.806.745-5.278.735-5.546.73.39-1.86 1.644-3.408 3.322-4.2.155.217 1.23 1.703 2.22 3.47zm1.352 2.947l.04-.014c.842 2.19 1.19 4.024 1.28 4.55C10.625 14.83 9.83 15 9 15c-1.387 0-2.665-.473-3.683-1.267.108-.22 1.323-2.567 4.708-3.746zm1.162-.29c1.88-.302 3.533.19 3.738.255-.268 1.67-1.226 3.112-2.572 4.022-.062-.365-.38-2.122-1.166-4.278z" fill="#919191" fill-rule="evenodd"/></symbol><symbol id="icon_round_github" viewBox="0 0 18 18"><title>icon_round_github</title><path d="M9 18c4.97 0 9-4.03 9-9s-4.03-9-9-9-9 4.03-9 9 4.03 9 9 9zm-1.428-7.314c0 .19-.03.385-.09.585-.06.2-.16.386-.307.548-.145.162-.318.243-.518.243s-.372-.08-.518-.243c-.15-.162-.25-.343-.31-.543s-.09-.394-.09-.584c0-.19.03-.388.09-.588.06-.2.16-.38.305-.543.145-.165.317-.246.517-.246s.373.08.518.243c.147.16.25.34.308.54.06.2.09.396.09.587zm4.57 0c0 .19-.03.385-.088.585-.06.2-.162.386-.308.548-.145.162-.318.243-.518.243s-.372-.08-.518-.243c-.145-.162-.247-.343-.307-.543s-.09-.394-.09-.584c0-.19.03-.388.09-.588.06-.2.162-.38.307-.543.146-.165.318-.246.518-.246s.373.08.518.243c.146.16.248.34.308.54s.09.396.09.587zm2.744-1.258c0 .986-.146 1.774-.436 2.365-.18.366-.432.683-.754.95-.32.266-.657.47-1.007.614-.35.143-.76.256-1.22.34-.46.083-.867.135-1.224.157-.36.02-.756.032-1.194.032-.372 0-.71-.008-1.015-.022-.304-.014-.656-.044-1.053-.09-.4-.044-.762-.116-1.09-.214-.33-.097-.655-.22-.98-.368-.323-.147-.61-.34-.863-.578-.252-.238-.457-.512-.614-.822C3.146 11.207 3 10.42 3 9.428c0-1.13.323-2.07.97-2.828-.127-.39-.192-.796-.192-1.215 0-.552.122-1.07.365-1.557.514 0 .967.094 1.357.282.39.188.84.482 1.35.882.7-.167 1.436-.25 2.207-.25.705 0 1.372.076 2 .228.5-.39.945-.678 1.336-.864.39-.186.84-.28 1.35-.278.243.485.364 1.004.364 1.557 0 .414-.064.814-.193 1.2.648.762.972 1.71.972 2.843zm-1.6 1.258c0-.572-.165-1.058-.493-1.458-.33-.4-.774-.6-1.336-.6-.195 0-.66.05-1.393.15-.338.053-.712.08-1.12.08-.41 0-.785-.027-1.123-.08-.72-.1-1.183-.15-1.39-.15-.56 0-1.005.2-1.333.6-.33.4-.493.886-.493 1.458 0 .42.077.784.23 1.096.152.312.344.557.58.736.23.178.522.32.87.428.347.107.68.177 1 .21.32.034.673.05 1.064.05h1.2c.39 0 .745-.016 1.064-.05.32-.033.654-.103 1-.21.35-.107.64-.25.873-.428.232-.18.425-.424.577-.736.15-.312.227-.677.23-1.096z" fill="#919191" fill-rule="evenodd"/></symbol><symbol id="icon_round_linkedin" viewBox="0 0 18 18"><title>icon_round_linkedin</title><path d="M9 18c4.97 0 9-4.03 9-9s-4.03-9-9-9-9 4.03-9 9 4.03 9 9 9zM7 5c0 .552-.448 1-1 1s-1-.448-1-1 .448-1 1-1 1 .448 1 1zm0 2H5v6h2V7zm2.852.178H8V13h1.852V9.944c0-.82.403-1.306 1.176-1.306.71 0 1.05.467 1.05 1.306V13H14V9.313C14 7.753 13.053 7 11.73 7c-1.322 0-1.88.962-1.88.962v-.784h.002z" fill="#919191" fill-rule="evenodd"/></symbol><symbol id="icon_round_pinboard" viewBox="0 0 18 18"><title>icon_round_pinboard</title><path d="M9 18c4.97 0 9-4.03 9-9s-4.03-9-9-9-9 4.03-9 9 4.03 9 9 9zM5.488 7.946l3.214 3.71-.137 1.827 1.964-1.966L14 14l-2.49-3.465 1.964-1.966-1.827.136L7.943 5.49 7.927 4 4 7.93l1.488.016z" fill="#919191" fill-rule="evenodd"/></symbol><symbol id="icon_round_twitter" viewBox="0 0 18 18"><title>icon_round_twitter</title><path d="M9 18c4.97 0 9-4.03 9-9s-4.03-9-9-9-9 4.03-9 9 4.03 9 9 9zm4.586-12.42c.508-.31.9-.806 1.082-1.395-.475.29-1.002.5-1.563.612-.45-.49-1.09-.797-1.797-.797C9.718 4 8.55 5.52 8.91 7.1c-2.046-.106-3.86-1.11-5.075-2.638-.644 1.135-.334 2.62.762 3.37-.403-.013-.783-.126-1.115-.315-.026 1.17.79 2.263 1.975 2.507-.347.097-.726.12-1.112.043.313 1.003 1.223 1.733 2.3 1.753-1.035.832-2.34 1.204-3.645 1.046C4.09 13.582 5.384 14 6.774 14c4.57 0 7.153-3.96 6.998-7.51.48-.355.898-.8 1.228-1.306-.44.2-.916.336-1.414.397z" fill="#919191" fill-rule="evenodd"/></symbol><symbol id="icon_rss" viewBox="0 0 13 13"><title>icon_rss</title><path d="M3.523 11.24c0 .972-.79 1.76-1.762 1.76C.79 13 0 12.212 0 11.24c0-.97.79-1.758 1.76-1.758.974 0 1.763.787 1.763 1.76 0 0 0-.973 0 0zM0 4.43v2.607C3.277 7.07 5.937 9.727 5.97 13h2.61C8.546 8.282 4.724 4.465 0 4.43c0 0 4.724.035 0 0zm0-1.824C2.77 2.618 5.373 3.7 7.334 5.66c1.964 1.96 3.05 4.567 3.056 7.34H13C12.984 5.833 7.174.025 0 0v2.606z" fill="#C1BFBF"/></symbol></svg>