<svg width="30" height="30" viewBox="0 0 30 30" fill="none" xmlns="http://www.w3.org/2000/svg"><path fill="#fff" d="M0 0h30v30H0z"/><path fill-rule="evenodd" clip-rule="evenodd" d="M30 15c0-8.284-6.716-15-15-15C6.716 0 0 6.716 0 15c0 8.284 6.716 15 15 15 8.284 0 15-6.716 15-15zM12.111 8.556a1.556 1.556 0 11-3.111 0 1.556 1.556 0 013.111 0zm0 3.11H9V21h3.111v-9.333zm4.436.277h-2.88V21h2.88v-4.755c0-1.273.628-2.031 1.83-2.031 1.104 0 1.635.728 1.635 2.031V21H23v-5.735c0-2.426-1.473-3.598-3.53-3.598-2.057 0-2.923 1.496-2.923 1.496v-1.22z" fill="#929191"/></svg>