<svg width="42" height="42" viewBox="0 0 42 42" fill="none" xmlns="http://www.w3.org/2000/svg"><path d="M28.5 17l1.867.7L27.5 25l-1.867-.7L28.5 17zm5.5 1.068h-2L34 21l-2 2.932h2L36 21l-2-2.932zm-12 0h2L22 21l2 2.932h-2L20 21l2-2.932zM5 5h6v2H5V5zm6 4H5v2h6V9zm-6 4h6v2H5v-2zm6 4H5v2h6v-2zm-6 4h6v2H5v-2zm6 4H5v2h6v-2z" fill="#C7A21E"/><path fill-rule="evenodd" clip-rule="evenodd" d="M40 0a2 2 0 012 2v38a2 2 0 01-2 2H2a2 2 0 01-2-2V2a2 2 0 012-2h38zM16 2h24v38H16V2zm-2 38H2V2h12v38z" fill="#C7A21E"/></svg>