<svg width="30" height="30" viewBox="0 0 30 30" fill="none" xmlns="http://www.w3.org/2000/svg"><path fill="#fff" d="M0 0h30v30H0z"/><path fill-rule="evenodd" clip-rule="evenodd" d="M30 15c0 8.284-6.716 15-15 15-8.284 0-15-6.716-15-15C0 6.716 6.716 0 15 0c8.284 0 15 6.716 15 15zm-9.65-4.201a5.733 5.733 0 001.65-.452 5.848 5.848 0 01-1.433 1.487c.182 4.04-2.831 8.543-8.164 8.543A8.131 8.131 0 018 19.087a5.775 5.775 0 004.252-1.19 2.874 2.874 0 01-2.683-1.994c.45.086.893.06 1.297-.05-1.38-.277-2.335-1.521-2.303-2.852.387.215.83.344 1.3.36a2.876 2.876 0 01-.888-3.835 8.154 8.154 0 005.92 3 2.875 2.875 0 014.894-2.619 5.753 5.753 0 001.824-.697 2.877 2.877 0 01-1.263 1.589z" fill="#929191"/></svg>