<svg width="18" height="18" viewBox="0 0 18 18" xmlns="http://www.w3.org/2000/svg"><title>icon_round_github</title><path d="M9 18c4.97 0 9-4.03 9-9s-4.03-9-9-9-9 4.03-9 9 4.03 9 9 9zm-1.428-7.314c0 .19-.03.385-.09.585-.06.2-.16.387-.307.55-.145.16-.318.242-.518.242s-.372-.08-.518-.243c-.15-.163-.25-.344-.31-.544s-.09-.394-.09-.584c0-.19.03-.388.09-.588.06-.2.16-.38.304-.543.145-.164.317-.245.517-.245s.374.08.52.243c.146.16.25.34.307.54.06.2.09.396.09.587zm4.57 0c0 .19-.03.385-.088.585-.06.2-.162.387-.308.55-.145.16-.318.242-.518.242s-.372-.08-.518-.243c-.145-.163-.247-.344-.307-.544s-.09-.394-.09-.584c0-.19.03-.388.09-.588.06-.2.162-.38.307-.543.146-.164.318-.245.518-.245s.373.08.518.243c.146.16.248.34.308.54s.09.396.09.587zm2.744-1.258c0 .986-.146 1.774-.436 2.365-.18.366-.432.683-.754.95-.32.266-.657.47-1.007.614-.35.143-.76.256-1.22.34-.46.083-.868.135-1.225.157-.36.02-.756.032-1.194.032-.37 0-.71-.008-1.014-.022-.304-.014-.656-.044-1.053-.09-.4-.044-.762-.116-1.09-.214-.33-.097-.655-.22-.98-.368-.323-.147-.61-.34-.863-.578-.252-.238-.457-.512-.614-.822C3.146 11.207 3 10.42 3 9.428c0-1.13.323-2.07.97-2.828-.127-.39-.192-.796-.192-1.215 0-.552.122-1.07.365-1.557.514 0 .967.094 1.357.282.39.188.84.482 1.35.882.7-.167 1.436-.25 2.207-.25.705 0 1.372.076 2 .228.5-.39.945-.678 1.336-.864.39-.186.84-.28 1.35-.278.243.485.364 1.004.364 1.557 0 .414-.064.814-.193 1.2.648.762.972 1.71.972 2.843zm-1.6 1.258c0-.572-.165-1.058-.493-1.458-.33-.4-.774-.6-1.336-.6-.195 0-.66.05-1.393.15-.338.053-.712.08-1.12.08-.41 0-.785-.027-1.123-.08-.72-.1-1.182-.15-1.39-.15-.56 0-1.004.2-1.332.6-.33.4-.493.886-.493 1.458 0 .42.077.784.23 1.096.152.312.344.557.58.736.23.178.522.32.87.428.347.107.68.177 1 .21.32.034.673.05 1.064.05h1.2c.39 0 .744-.016 1.063-.05.32-.033.654-.103 1-.21.35-.107.64-.25.873-.428.232-.18.425-.424.577-.736.15-.312.227-.677.23-1.096z" fill="#919191" fill-rule="evenodd"/></svg>