<svg width="18" height="18" viewBox="0 0 18 18" xmlns="http://www.w3.org/2000/svg"><title>icon_round_github</title><path d="M9 18A9 9 0 1 0 9 0a9 9 0 0 0 0 18zm-1.428-7.314c0 .19-.03.385-.09.585-.06.2-.16.39-.307.55a.672.672 0 0 1-1.036 0c-.15-.162-.25-.343-.31-.543s-.09-.394-.09-.584c0-.19.03-.388.09-.588.06-.2.16-.38.302-.543A.676.676 0 0 1 7.17 9.56c.146.16.25.34.307.54.06.2.09.397.09.588zm4.57 0c0 .19-.03.385-.088.585-.06.2-.162.39-.308.55a.672.672 0 0 1-1.036 0c-.145-.162-.247-.343-.307-.543s-.09-.394-.09-.584c0-.19.03-.388.09-.588.06-.2.162-.38.307-.543a.67.67 0 0 1 1.036 0c.146.16.248.34.308.54s.09.395.09.586zm2.744-1.258c0 .986-.146 1.774-.436 2.365a2.87 2.87 0 0 1-.754.95 3.89 3.89 0 0 1-1.007.614 6.19 6.19 0 0 1-1.22.34c-.46.083-.87.135-1.227.157a22.175 22.175 0 0 1-2.208.01 15.47 15.47 0 0 1-1.053-.09 6.154 6.154 0 0 1-1.09-.214 7.388 7.388 0 0 1-.98-.368 3.16 3.16 0 0 1-.863-.578 2.966 2.966 0 0 1-.615-.822C3.145 11.207 3 10.42 3 9.428c0-1.13.323-2.07.97-2.828a3.905 3.905 0 0 1-.192-1.215c0-.552.122-1.07.365-1.557.514 0 .967.094 1.357.282.39.188.84.482 1.35.882.7-.167 1.436-.25 2.207-.25a8.48 8.48 0 0 1 2 .228c.5-.39.945-.678 1.336-.864.39-.186.84-.28 1.35-.278.243.485.364 1.004.364 1.557 0 .414-.064.814-.193 1.2.648.762.972 1.71.972 2.843zm-1.6 1.258c0-.572-.165-1.058-.493-1.458-.33-.4-.774-.6-1.336-.6-.195 0-.66.05-1.393.15a7.26 7.26 0 0 1-1.12.08c-.41 0-.785-.027-1.123-.08-.72-.1-1.18-.15-1.39-.15-.56 0-1.002.2-1.33.6-.33.4-.493.886-.493 1.458 0 .42.077.784.23 1.096.152.312.344.557.58.736.23.178.522.32.87.428.347.107.68.177 1 .21.32.034.673.05 1.064.05h1.2c.39 0 .745-.016 1.064-.05.32-.033.654-.103 1-.21.35-.107.64-.25.873-.428.232-.18.425-.424.577-.736.15-.312.227-.677.23-1.096z" fill="#919191" fill-rule="evenodd"/></svg>