<svg class="icon  icon--left" width="18" height="18" viewBox="0 0 18 18" xmlns="http://www.w3.org/2000/svg"><title>icon_round_twitter</title><path d="M9 18A9 9 0 1 0 9 0a9 9 0 0 0 0 18zm4.586-12.42c.508-.31.9-.806 1.082-1.395-.475.29-1.002.5-1.563.612A2.436 2.436 0 0 0 11.308 4C9.718 4 8.55 5.52 8.91 7.1c-2.046-.106-3.86-1.11-5.075-2.638-.644 1.135-.334 2.62.762 3.37a2.407 2.407 0 0 1-1.115-.315c-.026 1.17.79 2.263 1.975 2.507-.347.097-.726.12-1.112.043.313 1.003 1.223 1.733 2.3 1.753A4.864 4.864 0 0 1 3 12.866 6.848 6.848 0 0 0 6.774 14c4.57 0 7.153-3.96 6.998-7.51.48-.355.898-.8 1.228-1.306-.44.2-.916.336-1.414.397z" fill="CurrentColor" fill-rule="evenodd"/></svg>
