<svg class="icon  icon--left" width="18" height="18" viewBox="0 0 18 18" xmlns="http://www.w3.org/2000/svg" role="img">
  <title>Dribbble</title>
  <desc>Dribbble Icon</desc>
  <path d="M9 18A9 9 0 1 0 9 0a9 9 0 0 0 0 18zm3.978-13.488c-.108.154-1.01 1.368-3.145 2.167a31.978 31.978 0 0 0-2.24-3.517C8.046 3.053 8.517 3 9 3c1.525 0 2.918.572 3.978 1.512zM9.42 9.052c-3.095 1-4.74 3.727-4.877 3.96A5.967 5.967 0 0 1 3 9c0-.06 0-.122.003-.183.263.005 3.17.043 6.167-.854.172.336.336.677.486 1.018l-.236.076zm1.273-.61a17.58 17.58 0 0 0-.4-.87c2.22-.906 3.226-2.195 3.352-2.366A5.963 5.963 0 0 1 15 8.943c-.198-.042-2.182-.444-4.178-.193a15.827 15.827 0 0 0-.13-.31zM8.673 7.04c-2.806.745-5.278.735-5.546.73a6.028 6.028 0 0 1 3.322-4.2c.154.217 1.23 1.703 2.22 3.47zm1.352 2.947l.04-.014a25.074 25.074 0 0 1 1.28 4.55A5.973 5.973 0 0 1 9 15a5.968 5.968 0 0 1-3.683-1.267c.108-.22 1.323-2.567 4.708-3.746zm1.162-.29c1.88-.302 3.533.19 3.738.255a6.012 6.012 0 0 1-2.572 4.022 25.82 25.82 0 0 0-1.166-4.278z" fill="CurrentColor" fill-rule="evenodd"/>
</svg>
