<svg width="800" height="370" viewBox="0 0 800 370" xmlns="http://www.w3.org/2000/svg"><title>icon_plate</title><g transform="translate(166 10)" fill="none"><path d="M24.632 26.696c0-1.137.42-1.137.934-1.137.653 0 .615 1.32.615 1.32l2.79 49.72c0 .3.26.54.56.54h2.22c.3 0 .56-.24.56-.54l2.985-49.42s.12-1.41.835-1.41c.825 0 1.06 1.58 1.06 1.58s3.93 33.83 4.326 38.64c.39 4.8 3.99 31.51-7.86 45.57-9.24 10.96-8.45 32.88-8.45 32.88s-.62 43.78 2.73 75.48c3.35 31.7 3.91 86.8 3.91 98.01 0 6.67-6.27 8.31-10.68 8.31s-10.673-1.64-10.673-8.31c0-11.21.56-66.31 3.91-98.01 3.35-31.705 2.73-75.484 2.73-75.484s.79-21.92-8.446-32.884C-3.173 97.51.42 70.806.817 66c.39-4.803 4.32-38.64 4.32-38.64s.235-1.576 1.063-1.576c.72 0 .84 1.408.84 1.408l2.98 49.414c0 .303.25.542.555.542h2.217c.31 0 .56-.24.56-.542l2.79-49.722s-.035-1.323.615-1.323c.513 0 .93 0 .93 1.14l1.815 49.91c0 .3.246.54.555.54h2.214c.31 0 .56-.24.56-.54l1.81-49.91zM445.12 318.913c-.267-10.222-.587-60.488 1.59-89.5 1.03-13.686 2.826-32.853 2.288-57.663-.263-12.224-4.893-34.582-6.024-79.297-1.13-44.717 12.13-60.398 15.542-64.08 4.922-5.313 10.25-2.59 10.08 3.897-.17 6.485-4.987 128.235-4.987 128.235s-2 39.914.32 68.91c2.31 29 1.5 79.276 1.23 89.498-.17 6.087-5.97 7.44-10.02 7.336-4.06.1-9.86-1.25-10.03-7.34z" fill="#636463"/><ellipse fill="#636463" cx="243.784" cy="175.155" rx="176.076" ry="175.155"/><ellipse stroke="#fff" stroke-width="2" cx="243.784" cy="175.155" rx="118.643" ry="118.023"/></g></svg>