<svg width="800" height="370" viewBox="0 0 800 370" xmlns="http://www.w3.org/2000/svg"><title>icon_robot</title><desc>Created with Sketch.</desc><g transform="translate(187 10)" fill="none"><path d="M.017 62C.797 28.165 28.13.872 62.05.02V0h308.615c34.672 0 62.873 27.624 63.666 62H.02zm-.015 2c.27 34.285 27.802 62.097 62.048 62.956v.02h308.615c35 0 63.405-28.148 63.68-62.976H.003z" fill="#636463"/><path d="M.408 62.628H434" stroke="#fff" stroke-width="2" stroke-linecap="square"/><path fill="#636463" d="M123.14 135.855h9.247v59.868h-9.246zm120.196 49.507c0 63.25-26.5 110.93-64.964 136.914H77.156c-38.464-25.983-64.964-73.663-64.964-136.914 0-2.703.05-5.39.144-8.06h230.856c.096 2.67.144 5.357.144 8.06z"/><path d="M304.58 249.925c-.665 40.122-33.522 72.443-73.956 72.443H6.63c-3.31 0-5.995 2.688-5.995 5.996V350H363.53v-.05c27.013-1.205 48.542-23.402 48.542-50.608 0-5-.727-9.83-2.082-14.394l.04-.008-60.84-231.046s-3.915-25.197-35.754-25.55c-31.84-.353-30.385 26.15-30.385 26.15l21.53 195.43zm28.456-179.853c4.867-8.557 3.11-19.61-4.673-26.14-7.782-6.53-18.972-6.34-26.554-.062l31.22 26.202zm-36.09-20.407c-4.867 8.556-3.11 19.61 4.673 26.14 7.78 6.53 18.97 6.34 26.55.062l-31.23-26.202z" stroke="#fff" stroke-width="2" fill="#636463"/><ellipse fill="#fff" cx="338.106" cy="262.5" rx="4.623" ry="4.605"/><ellipse fill="#fff" cx="351.974" cy="262.5" rx="4.623" ry="4.605"/><ellipse fill="#fff" cx="365.843" cy="262.5" rx="4.623" ry="4.605"/><ellipse fill="#636463" cx="127.764" cy="103.618" rx="34.672" ry="34.539"/></g></svg>