<svg width="18" height="18" viewBox="0 0 18 18" xmlns="http://www.w3.org/2000/svg"><title>icon_github</title><g fill="none"><circle fill="#919191" cx="9" cy="9" r="9"/><path d="M7.572 10.686c0 .19-.03.386-.09.586-.058.2-.16.38-.306.543-.145.162-.318.243-.518.243s-.373-.08-.518-.243c-.145-.162-.248-.343-.307-.543s-.09-.395-.09-.586c0-.19.03-.386.09-.586.06-.2.162-.38.307-.543.145-.162.318-.243.518-.243s.373.08.518.243c.145.162.248.343.307.543s.09.395.09.586zm4.57 0c0 .19-.03.386-.088.586-.06.2-.162.38-.307.543-.145.162-.318.243-.518.243s-.38-.08-.52-.243c-.15-.162-.25-.343-.31-.543s-.09-.395-.09-.586c0-.19.03-.386.09-.586.06-.2.16-.38.304-.543.145-.162.32-.243.52-.243s.37.08.516.243c.146.162.25.343.308.543s.09.395.09.586zm1.144 0c0-.57-.164-1.057-.493-1.457-.33-.4-.774-.6-1.336-.6-.195 0-.66.05-1.393.15-.338.05-.712.07-1.122.07-.41 0-.783-.026-1.122-.078-.724-.1-1.188-.15-1.393-.15-.562 0-1.007.2-1.336.6-.32.4-.49.885-.49 1.456 0 .42.08.784.23 1.096.15.31.348.556.58.735.234.18.525.32.87.43.35.106.68.176 1 .21.32.033.676.05 1.066.05h1.2c.39 0 .746-.017 1.065-.05.32-.03.653-.104 1-.21s.638-.25.87-.43c.235-.177.427-.423.58-.735.15-.313.227-.678.227-1.097zm1.6-1.257c0 .98-.145 1.77-.436 2.36-.18.363-.432.68-.754.95-.32.263-.657.47-1.007.61-.35.143-.76.256-1.22.34-.46.082-.87.135-1.227.156-.358.022-.756.032-1.194.032-.37 0-.71-.008-1.014-.023-.306-.012-.657-.042-1.055-.09s-.76-.114-1.09-.21c-.33-.1-.654-.22-.977-.37-.324-.147-.612-.34-.864-.578-.253-.238-.457-.51-.614-.82-.29-.584-.44-1.37-.44-2.36 0-1.13.324-2.07.972-2.83-.13-.39-.196-.794-.196-1.213 0-.552.12-1.07.363-1.557.513 0 .966.094 1.356.28.39.19.84.484 1.35.884.7-.166 1.44-.25 2.21-.25.706 0 1.37.077 2 .23.5-.39.946-.678 1.337-.863.39-.186.84-.28 1.35-.278.242.483.363 1.002.363 1.554 0 .412-.065.812-.194 1.2.647.76.97 1.71.97 2.84z" fill="#242424"/></g></svg>