<svg width="18" height="18" viewBox="0 0 18 18" xmlns="http://www.w3.org/2000/svg"><title>icon_round_twitter</title><desc>Created with Sketch.</desc><g fill="none"><circle fill="#919191" cx="9" cy="9" r="9"/><path d="M13.586 5.58c.508-.31.9-.806 1.082-1.395-.475.29-1.002.5-1.563.612-.45-.49-1.09-.797-1.797-.797C9.718 4 8.55 5.52 8.91 7.1c-2.046-.106-3.86-1.11-5.075-2.638-.644 1.135-.334 2.62.762 3.37-.403-.013-.783-.126-1.115-.315-.026 1.17.79 2.263 1.975 2.507-.347.097-.726.12-1.112.043.313 1.003 1.223 1.733 2.3 1.753-1.035.832-2.34 1.204-3.645 1.046C4.09 13.582 5.384 14 6.774 14c4.57 0 7.153-3.96 6.998-7.51.48-.355.898-.8 1.228-1.306-.44.2-.916.336-1.414.397z" fill="#232323"/></g></svg>