<svg width="18" height="18" viewBox="0 0 18 18" xmlns="http://www.w3.org/2000/svg"><title>icon_dribbble</title><g fill="none"><circle fill="#919191" cx="9" cy="9" r="9"/><circle fill="#242424" cx="9" cy="9" r="6"/><path d="M14.905 9.835c.038-.273.058-.552.058-.835v-.126c-.547-.075-1.108-.114-1.68-.114-3.752 0-7.036 1.676-8.843 4.183.214.245.447.472.697.68 1.603-2.32 4.636-3.903 8.146-3.903.554 0 1.096.04 1.622.115zM12.9 4.44c.246.212.475.444.685.694C12.22 7.01 9.44 8.44 6.132 8.73c-1.09.095-2.147.06-3.132-.09.02-.325.063-.643.132-.95.91.138 1.893.173 2.916.084 3.15-.276 5.716-1.65 6.85-3.333zm-1.792 10.218c.307-.142.6-.31.875-.5-.61-2.818-1.814-5.74-3.615-8.514-.492-.758-1.013-1.48-1.558-2.164-.322.1-.633.225-.93.375.59.724 1.153 1.496 1.682 2.312 1.806 2.78 2.982 5.703 3.545 8.49z" fill="#919191"/></g></svg>