<svg width="13" height="13" viewBox="0 0 13 13" xmlns="http://www.w3.org/2000/svg"><title>icon_rss</title><desc>Created with Sketch.</desc><path d="M3.523 11.24c0 .972-.79 1.76-1.762 1.76C.79 13 0 12.212 0 11.24c0-.97.79-1.758 1.76-1.758.974 0 1.763.787 1.763 1.76 0 0 0-.973 0 0zM0 4.43v2.607C3.277 7.07 5.937 9.727 5.97 13h2.61C8.546 8.282 4.724 4.465 0 4.43c0 0 4.724.035 0 0zm0-1.824C2.77 2.618 5.373 3.7 7.334 5.66c1.964 1.96 3.05 4.567 3.056 7.34H13C12.984 5.833 7.174.025 0 0v2.606z" fill="#C1BFBF"/></svg>