<svg width="18" height="18" viewBox="0 0 18 18" xmlns="http://www.w3.org/2000/svg"><title>icon_round_github</title><desc>Created with Sketch.</desc><path d="M9 18c4.97 0 9-4.03 9-9s-4.03-9-9-9-9 4.03-9 9 4.03 9 9 9zm-1.428-7.314c0 .19-.03.385-.09.585-.06.2-.16.382-.307.544-.145.162-.318.243-.518.243s-.372-.08-.518-.243c-.146-.162-.25-.343-.308-.543-.06-.2-.09-.394-.09-.584 0-.19.03-.386.09-.586.06-.2.162-.38.307-.543.145-.162.317-.243.517-.243s.373.08.518.243c.146.162.248.343.307.543.06.2.09.395.09.586zm4.57 0c0 .19-.03.385-.088.585-.06.2-.162.382-.308.544-.145.162-.318.243-.518.243s-.372-.08-.518-.243c-.145-.162-.247-.343-.307-.543s-.09-.394-.09-.584c0-.19.03-.386.09-.586.06-.2.162-.38.307-.543.146-.162.318-.243.518-.243s.373.08.518.243c.146.162.248.343.308.543s.09.395.09.586zm2.744-1.258c0 .986-.146 1.774-.436 2.365-.18.366-.432.683-.754.95-.32.266-.657.47-1.007.614-.35.143-.756.256-1.215.34-.46.083-.868.135-1.225.157-.358.02-.755.032-1.193.032-.372 0-.71-.008-1.015-.022-.304-.014-.656-.044-1.053-.09-.4-.044-.762-.116-1.09-.214-.33-.097-.655-.22-.98-.368-.323-.147-.61-.34-.863-.578-.253-.238-.458-.512-.615-.822C3.147 11.207 3 10.42 3 9.428c0-1.13.323-2.07.97-2.828-.127-.39-.192-.796-.192-1.215 0-.552.122-1.07.365-1.557.514 0 .967.094 1.357.282.39.188.84.482 1.35.882.7-.167 1.436-.25 2.207-.25.705 0 1.372.076 2 .228.5-.39.945-.678 1.336-.864.39-.186.84-.28 1.35-.278.243.485.364 1.004.364 1.557 0 .414-.064.814-.193 1.2.648.762.972 1.71.972 2.843zm-1.6 1.258c0-.572-.165-1.058-.493-1.458-.33-.4-.774-.6-1.336-.6-.195 0-.66.05-1.393.15-.338.053-.712.08-1.12.08-.41 0-.785-.027-1.123-.08-.723-.1-1.187-.15-1.392-.15-.56 0-1.007.2-1.335.6-.33.4-.493.886-.493 1.458 0 .42.076.784.228 1.096.153.312.345.557.58.736.232.178.523.32.87.428.348.107.68.177 1 .21.32.034.674.05 1.065.05h1.2c.39 0 .745-.016 1.064-.05.32-.033.653-.103 1-.21.348-.107.638-.25.872-.428.232-.18.425-.424.577-.736.152-.312.228-.677.23-1.096z" fill="#919191" fill-rule="evenodd"/></svg>