<svg width="16" height="14" viewBox="0 0 16 14" xmlns="http://www.w3.org/2000/svg"><title>icon_twitter</title><desc>Created with Sketch.</desc><path d="M16 1.656c-.59.28-1.22.47-1.885.557.677-.438 1.198-1.13 1.443-1.955-.634.405-1.337.7-2.085.857C12.875.43 12.023 0 11.077 0 8.96 0 7.4 2.128 7.88 4.337 5.152 4.19 2.733 2.784 1.114.647.254 2.234.668 4.31 2.13 5.363c-.538-.02-1.045-.177-1.487-.442-.036 1.64 1.054 3.17 2.633 3.51-.462.134-.968.165-1.483.06.418 1.403 1.63 2.424 3.067 2.453-1.38 1.164-3.118 1.683-4.86 1.463 1.453 1.002 3.178 1.587 5.032 1.587 6.094 0 9.538-5.54 9.33-10.508.64-.498 1.198-1.12 1.638-1.83z" fill="#919191"/></svg>