<?xml version="1.0" encoding="UTF-8" standalone="no"?>
<svg width="14px" height="10px" viewBox="0 0 14 10" version="1.1" xmlns="http://www.w3.org/2000/svg" xmlns:xlink="http://www.w3.org/1999/xlink" xmlns:sketch="http://www.bohemiancoding.com/sketch/ns">
    <!-- Generator: Sketch 3.0.4 (8053) - http://www.bohemiancoding.com/sketch -->
    <title>icon_email</title>
    <desc>Created with Sketch.</desc>
    <defs></defs>
    <g id="home" stroke="none" stroke-width="1" fill="none" fill-rule="evenodd" sketch:type="MSPage">
        <g id="Artboard-1" sketch:type="MSArtboardGroup" transform="translate(-1320.000000, -50.000000)" fill="#FFFFFF">
            <g id="NAVBAR" sketch:type="MSLayerGroup">
                <g id="cta-contact" transform="translate(1308.000000, 38.000000)" sketch:type="MSShapeGroup">
                    <path d="M24.8343403,12.0233757 C24.5882369,12.104209 12.4108231,16.0921257 12.1714438,16.1708757 C11.9679266,16.2375423 11.9217541,16.4008757 12.1642714,16.4900423 C12.4520645,16.5975423 14.887099,17.504209 14.887099,17.504209 L14.8862024,17.504209 L16.5008921,18.105459 C16.5008921,18.105459 24.2735472,12.7996257 24.3788921,12.727959 C24.4842369,12.6558757 24.6070645,12.7912923 24.5304093,12.8687923 C24.4537541,12.946709 18.8848231,18.5446257 18.8848231,18.5446257 L18.8839266,18.5446257 L18.5598231,18.880459 L18.9892714,19.0950423 C18.9892714,19.0950423 22.3244438,20.7637923 22.56203,20.882959 C22.77003,20.9871257 23.0412369,20.900459 23.1013059,20.6596257 C23.1721334,20.375459 25.1418576,12.4850423 25.1857886,12.310459 C25.2431679,12.081709 25.0808921,11.9425423 24.8343403,12.022959 L24.8343403,12.0233757 Z M16.4865472,21.707959 C16.4865472,21.8725423 16.5860645,21.917959 16.7241334,21.8021257 C16.9034438,21.6500423 18.7673748,20.095459 18.7673748,20.095459 L16.4865472,18.997959 L16.4865472,21.707959 L16.4865472,21.707959 Z" id="icon_email"></path>
                </g>
            </g>
        </g>
    </g>
</svg>