<svg width="18" height="18" viewBox="0 0 18 18" xmlns="http://www.w3.org/2000/svg"><title>icon_round_dribbble</title><desc>Created with Sketch.</desc><path d="M9 18c4.97 0 9-4.03 9-9s-4.03-9-9-9-9 4.03-9 9 4.03 9 9 9zm3.978-13.488c-.108.154-1.01 1.368-3.145 2.167C8.85 4.87 7.76 3.39 7.593 3.165 8.046 3.056 8.517 3 9 3c1.525 0 2.918.572 3.978 1.512zM9.42 9.052c-3.095 1-4.74 3.727-4.877 3.96C3.583 11.948 3 10.542 3 9c0-.06 0-.122.003-.183.263.005 3.17.043 6.167-.854.172.336.336.677.486 1.018l-.236.073zm1.273-.61c-.125-.294-.26-.585-.4-.87 2.22-.906 3.226-2.195 3.352-2.366.836 1.02 1.342 2.32 1.355 3.737-.198-.042-2.182-.444-4.178-.193-.042-.103-.085-.206-.13-.31zM8.673 7.04c-2.806.745-5.278.735-5.546.73.39-1.86 1.644-3.408 3.322-4.2.157.217 1.23 1.703 2.223 3.47zm1.352 2.947l.04-.014c.842 2.19 1.19 4.024 1.28 4.55C10.625 14.83 9.83 15 9 15c-1.387 0-2.665-.473-3.683-1.267.108-.22 1.323-2.567 4.708-3.746zm1.162-.29c1.88-.302 3.533.19 3.738.255-.268 1.67-1.226 3.112-2.572 4.022-.062-.365-.38-2.122-1.166-4.278z" fill="#919191"/></svg>