<?xml version="1.0" encoding="UTF-8" standalone="no"?>
<svg width="800px" height="370px" viewBox="0 0 800 370" version="1.1" xmlns="http://www.w3.org/2000/svg" xmlns:xlink="http://www.w3.org/1999/xlink" xmlns:sketch="http://www.bohemiancoding.com/sketch/ns">
    <!-- Generator: Sketch 3.0.4 (8053) - http://www.bohemiancoding.com/sketch -->
    <title>icon_casseroles</title>
    <desc>Created with Sketch.</desc>
    <defs></defs>
    <g id="Page-1" stroke="none" stroke-width="1" fill="none" fill-rule="evenodd" sketch:type="MSPage">
        <g id="icon_casseroles" sketch:type="MSArtboardGroup">
            <g id="casseroles_details" sketch:type="MSLayerGroup" transform="translate(192.000000, 10.000000)">
                <path d="M79.0304804,121.992009 L39.637351,107.093779 C34.8762908,105.292448 32.1265634,101.062253 33.485572,97.6537188 C34.8445806,94.2406698 39.804962,92.9269167 44.5614922,94.7282482 L78.9987702,107.743884 C78.96253,94.0826582 78.9398798,83.9247741 78.9398798,83.2836987 C78.9398798,81.2656657 77.9251534,81.5636303 77.9251534,81.5636303 C75.4608178,81.3108119 75.4109875,80.1957019 75.4109875,77.965482 C75.4109875,75.7352621 77.8300228,76.416969 77.3090695,75.4869583 C77.3090695,75.4869583 339.319691,75.7240114 339.316869,75.7352621 C339.122077,76.416969 341.541113,75.7352621 341.541113,77.965482 C341.541113,80.1957019 341.495812,81.3108119 339.022417,81.5636303 C339.022417,81.5636303 338.01222,81.2656657 338.01222,83.2836987 C338.01222,83.9247741 337.98957,94.3309621 337.95333,108.226948 L371.692984,93.7440621 C376.354383,91.7440876 381.369125,92.841139 382.886684,96.1819543 C384.395184,99.5317988 381.844778,103.879373 377.174318,105.879348 L337.91709,122.732406 C337.912853,124.504168 337.908581,126.29508 337.904294,128.095865 L79.0450748,128.095865 C79.0401443,126.043808 79.0352674,124.004611 79.0304804,121.992009 Z M52.6245351,130.095865 C52.4523969,130.695055 50.2898829,130.391856 50.2898829,132.691796 C50.2898829,135.344986 50.3491637,136.671581 53.2808709,136.972348 C53.2808709,136.972348 54.4880445,136.617873 54.4880445,139.018635 C54.4880445,139.781293 54.5149903,151.865662 54.5581037,168.117797 L13.5896511,152.633691 C7.93102505,150.490729 2.02988645,152.053641 0.413136154,156.113989 C-1.20361415,160.168967 2.06761063,165.201435 7.73162584,167.344397 L54.5958279,185.068139 C54.6766654,219.054757 54.7790596,308.954868 54.7790596,308.954868 L54.7790596,320.287321 C54.7790596,322.435654 56.0401248,339.278579 92.2930557,345.095189 C128.465149,350.901057 288.71205,350.901057 324.884143,345.095189 C361.137074,339.278579 362.408917,322.435654 362.408917,320.287321 L362.408917,308.954868 C362.408917,308.954868 362.500533,219.752965 362.581371,185.948955 L409.283898,165.899643 C414.84013,163.520365 417.874231,158.348255 416.079638,154.363099 C414.274267,150.388684 408.308458,149.083572 402.763005,151.46285 L362.624484,168.692475 C362.667597,152.161058 362.694543,139.781293 362.694543,139.018635 C362.694543,136.617873 363.896328,136.972348 363.896328,136.972348 C366.838813,136.671581 366.892705,135.344986 366.892705,132.691796 C366.892705,130.104208 364.155443,130.811613 364.235047,130.095865 L52.6245351,130.095865 L52.6245351,130.095865 Z M289.358422,73.6969785 L289.358422,64.6252291 L289.358422,64.6252291 C292.404463,63.6225854 293.06251,60.6476148 295.406721,55.516368 C298.449175,48.8549045 309.175892,37.9558269 320.316237,31.8998677 C369.308015,5.26867052 442.446398,9.0922333 442.446398,9.0922333 C442.446398,9.0922333 445.884095,6.26624116 444.468572,1.62465213 C443.05305,-3.01785294 377.433481,2.83566076 349.279293,11.71578 C320.711879,20.7277029 298.69771,35.8397663 289.358422,42.9345389 L289.358422,37.5295697 C289.358422,33.6940984 292.198659,33.6940984 292.198659,33.6940984 L294.220833,33.6940984 C294.560926,33.6940984 294.827486,33.4211176 294.827486,33.086762 L294.827486,31.2729972 C294.827486,30.9386415 294.560926,30.6665768 294.220833,30.6665768 L123.694516,30.6665768 C123.3581,30.6665768 123.085106,30.9386415 123.085106,31.2729972 L123.085106,33.086762 C123.085106,33.4211176 123.3581,33.6940984 123.694516,33.6940984 L125.718529,33.6940984 C125.718529,33.6940984 128.549574,33.6940984 128.549574,37.5295697 L128.549574,73.6969785 L289.358422,73.6969785 L289.358422,73.6969785 L289.358422,73.6969785 Z" id="Fill-81" fill="#636463" sketch:type="MSShapeGroup"></path>
                <path d="M129.5,74.2406781 L288.498428,74.4897453" id="Line" stroke="#FFFFFF" stroke-width="2" stroke-linecap="square" sketch:type="MSShapeGroup"></path>
                <path d="M80,129 L337,129" id="Line-2" stroke="#FFFFFF" stroke-width="2" stroke-linecap="square" sketch:type="MSShapeGroup"></path>
            </g>
        </g>
    </g>
</svg>