<svg width="800" height="370" viewBox="0 0 800 370" xmlns="http://www.w3.org/2000/svg" xmlns:xlink="http://www.w3.org/1999/xlink"><title>icon_casseroles</title><defs><path id="a" d="M384.446 148.726l-38.313 16.442c.04-15.776.067-27.59.067-28.317 0-2.29 1.147-1.95 1.147-1.95 2.81-.28 2.86-1.55 2.86-4.08s-2.747-1.76-2.526-2.53c.02-.06-297.52-.28-297.52-.28.59 1.06-2.15.29-2.15 2.82s.06 3.8 2.86 4.09c0 0 1.15-.34 1.15 1.95 0 .73.03 12.26.07 27.77l-39.11-14.79c-5.404-2.045-11.036-.555-12.58 3.32-1.543 3.87 1.58 8.67 6.986 10.716l44.73 16.915c.078 32.43.176 118.22.176 118.22v10.82c0 2.05 1.204 18.12 35.808 23.67 34.527 5.54 187.486 5.54 222.013 0 34.6-5.55 35.816-21.62 35.816-23.67v-10.82s.08-85.12.16-117.38l44.58-19.13c5.3-2.27 8.2-7.2 6.48-11.01-1.727-3.79-7.42-5.03-12.71-2.76z"/></defs><g fill="none"><g transform="translate(202 12)"><use fill="#636463" xlink:href="#a"/><use xlink:href="#a"/></g><path d="M276.83 130.344l-37.623-14.206c-4.547-1.718-7.173-5.75-5.875-9 1.298-3.256 6.035-4.508 10.578-2.79l32.89 12.41c-.035-13.026-.057-22.712-.057-23.324 0-1.924-.97-1.64-.97-1.64-2.353-.24-2.4-1.304-2.4-3.43 0-2.127 2.31-1.477 1.813-2.364 0 0 250.245.185 250.232.237-.186.65 2.124 0 2.124 2.126 0 2.127-.043 3.19-2.405 3.43 0 0-.965-.283-.965 1.64 0 .613-.022 10.535-.057 23.786l32.224-13.81c4.45-1.91 9.24-.87 10.69 2.32 1.44 3.19-1 7.34-5.46 9.24l-37.5 16.07-.02 6.92c-56.12-.07-190.97-.18-247.22-.22l-.02-7.41zm200.833-56.847c2.907-.954 3.535-3.785 5.77-8.667 2.905-6.34 13.14-16.71 23.77-22.47 46.75-25.34 116.54-21.702 116.54-21.702s3.282-2.69 1.93-7.105c-1.35-4.417-63.966 1.152-90.832 9.602-27.26 8.574-48.26 22.953-57.17 29.703v-5.142c0-3.65 2.71-3.65 2.71-3.65h1.93c.33 0 .58-.26.58-.578v-1.725c0-.318-.25-.577-.58-.577H319.59c-.324 0-.584.26-.584.577v1.725c0 .32.26.578.583.578h1.93s2.7 0 2.7 3.65V83.87c44.38.033 109.44.086 153.45.13V73.497z" fill="#636463"/></g></svg>