<?xml version="1.0" encoding="UTF-8" standalone="no"?>
<svg width="122px" height="16px" viewBox="0 0 122 16" version="1.1" xmlns="http://www.w3.org/2000/svg" xmlns:xlink="http://www.w3.org/1999/xlink" xmlns:sketch="http://www.bohemiancoding.com/sketch/ns">
    <!-- Generator: Sketch 3.0.4 (8053) - http://www.bohemiancoding.com/sketch -->
    <title>logo_web</title>
    <desc>Created with Sketch.</desc>
    <defs></defs>
    <g id="Page-1" stroke="none" stroke-width="1" fill="none" fill-rule="evenodd" sketch:type="MSPage">
        <g id="logo_web" sketch:type="MSLayerGroup" transform="translate(-55.000000, -285.000000)">
            <path d="M60.5039062,296.210938 L60.5039062,296.230469 L60.5136719,296.181641 L63.3554688,285.78125 L65.25,285.78125 L68.1210938,296.210938 L68.1308594,296.279297 L68.140625,296.181641 L70.3867188,285.78125 L72.7207031,285.78125 L69.3417969,300 L67.1835938,300 L64.3417969,289.794922 L64.2832031,289.794922 L61.4316406,300 L59.2636719,300 L55.8945312,285.78125 L58.2285156,285.78125 L60.5039062,296.210938 Z" id="Path" fill="#FFFFFF" sketch:type="MSShapeGroup"></path>
            <path d="M83.3457031,293.603516 L77.125,293.603516 L77.125,298.105469 L84.3417969,298.105469 L84.3417969,300 L74.7519531,300 L74.7519531,285.78125 L84.2734375,285.78125 L84.2734375,287.685547 L77.125,287.685547 L77.125,291.699219 L83.3457031,291.699219 L83.3457031,293.603516 Z" id="Path" fill="#FFFFFF" sketch:type="MSShapeGroup"></path>
            <path d="M86.34375,300 L86.34375,285.78125 L91.0703125,285.78125 C92.6458412,285.78125 93.8762977,286.10514 94.7617188,286.75293 C95.6471398,287.400719 96.0898438,288.369134 96.0898438,289.658203 C96.0898438,290.302738 95.9042987,290.878904 95.5332031,291.386719 C95.1621075,291.894534 94.6477897,292.272134 93.9902344,292.519531 C94.8365928,292.708334 95.4876279,293.115231 95.9433594,293.740234 C96.3990908,294.365237 96.6269531,295.091142 96.6269531,295.917969 C96.6269531,297.252611 96.1907596,298.266598 95.3183594,298.959961 C94.4459592,299.653324 93.2415441,300 91.7050781,300 L86.34375,300 Z M88.7167969,293.535156 L88.7167969,298.105469 L91.7050781,298.105469 C92.5253947,298.105469 93.1568988,297.918296 93.5996094,297.543945 C94.0423199,297.169594 94.2636719,296.627608 94.2636719,295.917969 C94.2636719,295.162757 94.0781269,294.576825 93.7070312,294.160156 C93.3359356,293.743488 92.7565144,293.535156 91.96875,293.535156 L88.7167969,293.535156 Z M88.7167969,291.767578 L91.3339844,291.767578 C92.0696651,291.767578 92.650714,291.593426 93.0771484,291.245117 C93.5035829,290.896808 93.7167969,290.403649 93.7167969,289.765625 C93.7167969,289.062496 93.4921897,288.540041 93.0429688,288.198242 C92.5937478,287.856444 91.9362022,287.685547 91.0703125,287.685547 L88.7167969,287.685547 L88.7167969,291.767578 Z" id="Path" fill="#FFFFFF" sketch:type="MSShapeGroup"></path>
            <path d="M107.105469,296.416016 C107.105469,295.764971 106.861331,295.219729 106.373047,294.780273 C105.884763,294.340818 105.018886,293.971356 103.775391,293.671875 C102.271477,293.3138 101.097986,292.786462 100.254883,292.089844 C99.4117796,291.393226 98.9902344,290.517583 98.9902344,289.462891 C98.9902344,288.356114 99.4443314,287.431644 100.352539,286.689453 C101.260747,285.947262 102.437493,285.576172 103.882812,285.576172 C105.43881,285.576172 106.677404,286.0026 107.598633,286.855469 C108.519861,287.708338 108.964193,288.697911 108.931641,289.824219 L108.912109,289.882812 L107.076172,289.882812 C107.076172,289.049475 106.80111,288.375654 106.250977,287.861328 C105.700844,287.347003 104.911463,287.089844 103.882812,287.089844 C102.925776,287.089844 102.191734,287.306313 101.680664,287.739258 C101.169594,288.172203 100.914062,288.736976 100.914062,289.433594 C100.914062,290.052086 101.190752,290.568032 101.744141,290.981445 C102.297529,291.394859 103.195957,291.757811 104.439453,292.070312 C105.936856,292.441408 107.076168,292.988278 107.857422,293.710938 C108.638676,294.433597 109.029297,295.328771 109.029297,296.396484 C109.029297,297.542323 108.560552,298.463538 107.623047,299.160156 C106.685542,299.856774 105.461596,300.205078 103.951172,300.205078 C102.531894,300.205078 101.277024,299.820967 100.186523,299.052734 C99.0960232,298.284501 98.5670571,297.255866 98.5996094,295.966797 L98.6191406,295.908203 L100.455078,295.908203 C100.455078,296.819666 100.790361,297.513018 101.460938,297.988281 C102.131514,298.463544 102.961584,298.701172 103.951172,298.701172 C104.921229,298.701172 105.68945,298.496096 106.255859,298.085938 C106.822268,297.675779 107.105469,297.119144 107.105469,296.416016 L107.105469,296.416016 Z" id="Path" fill="#D35400" sketch:type="MSShapeGroup"></path>
            <path d="M121.460938,287.294922 L116.890625,287.294922 L116.890625,300 L114.966797,300 L114.966797,287.294922 L110.40625,287.294922 L110.40625,285.78125 L121.460938,285.78125 L121.460938,287.294922 Z" id="Path" fill="#D35400" sketch:type="MSShapeGroup"></path>
            <path d="M134.3125,294.160156 C134.3125,295.898446 133.773768,297.340489 132.696289,298.486328 C131.61881,299.632167 130.220712,300.205078 128.501953,300.205078 C126.841789,300.205078 125.492518,299.632167 124.454102,298.486328 C123.415685,297.340489 122.896484,295.898446 122.896484,294.160156 L122.896484,291.630859 C122.896484,289.89908 123.415685,288.457037 124.454102,287.304688 C125.492518,286.152338 126.841789,285.576172 128.501953,285.576172 C130.220712,285.576172 131.61881,286.15071 132.696289,287.299805 C133.773768,288.448899 134.3125,289.892569 134.3125,291.630859 L134.3125,294.160156 L134.3125,294.160156 Z M132.388672,291.611328 C132.388672,290.309238 132.037113,289.241541 131.333984,288.408203 C130.630856,287.574866 129.686855,287.158203 128.501953,287.158203 C127.382156,287.158203 126.48861,287.574866 125.821289,288.408203 C125.153968,289.241541 124.820312,290.309238 124.820312,291.611328 L124.820312,294.160156 C124.820312,295.475267 125.153968,296.549475 125.821289,297.382812 C126.48861,298.21615 127.382156,298.632812 128.501953,298.632812 C129.693365,298.632812 130.638994,298.217778 131.338867,297.387695 C132.03874,296.557613 132.388672,295.481777 132.388672,294.160156 L132.388672,291.611328 L132.388672,291.611328 Z" id="Path" fill="#D35400" sketch:type="MSShapeGroup"></path>
            <path d="M145.621094,293.408203 L139.107422,293.408203 L139.107422,298.496094 L146.617188,298.496094 L146.617188,300 L137.183594,300 L137.183594,285.78125 L146.509766,285.78125 L146.509766,287.294922 L139.107422,287.294922 L139.107422,291.894531 L145.621094,291.894531 L145.621094,293.408203 Z" id="Path" fill="#D35400" sketch:type="MSShapeGroup"></path>
            <path d="M151.333984,285.78125 L155.865234,297.333984 L155.923828,297.333984 L160.455078,285.78125 L162.916016,285.78125 L162.916016,300 L160.992188,300 L160.992188,294.375 L161.1875,288.59375 L161.138672,288.583984 L156.529297,300 L155.25,300 L150.660156,288.613281 L150.611328,288.623047 L150.796875,294.375 L150.796875,300 L148.873047,300 L148.873047,285.78125 L151.333984,285.78125 Z" id="Path" fill="#D35400" sketch:type="MSShapeGroup"></path>
            <path d="M168.365234,294.296875 L168.365234,300 L166.441406,300 L166.441406,285.78125 L171.880859,285.78125 C173.397794,285.78125 174.576168,286.171871 175.416016,286.953125 C176.255864,287.734379 176.675781,288.763014 176.675781,290.039062 C176.675781,291.334642 176.255864,292.36816 175.416016,293.139648 C174.576168,293.911137 173.397794,294.296875 171.880859,294.296875 L168.365234,294.296875 Z M168.365234,292.792969 L171.880859,292.792969 C172.844406,292.792969 173.5638,292.534182 174.039062,292.016602 C174.514325,291.499021 174.751953,290.846358 174.751953,290.058594 C174.751953,289.270829 174.512698,288.613284 174.03418,288.085938 C173.555662,287.558591 172.837895,287.294922 171.880859,287.294922 L168.365234,287.294922 L168.365234,292.792969 Z" id="Path" fill="#D35400" sketch:type="MSShapeGroup"></path>
        </g>
    </g>
</svg>