<svg width="122" height="16" viewBox="0 0 122 16" xmlns="http://www.w3.org/2000/svg"><title>logo_web</title><g fill="none"><path d="M5.504 11.21v.02l.01-.048 2.84-10.4h1.896l2.87 10.43.01.067.01-.1L15.387.78h2.334L14.35 15h-2.16L9.34 4.795h-.06L6.432 15H4.265L.895.78H3.23l2.274 10.43zm22.842-2.606h-6.22v4.5h7.216V15h-9.59V.78h9.52v1.906h-7.147V6.7h6.22v1.904zM31.344 15V.78h4.726c1.576 0 2.806.325 3.692.973.885.648 1.328 1.616 1.328 2.905 0 .645-.186 1.22-.557 1.73-.37.507-.885.884-1.543 1.132.847.188 1.498.595 1.953 1.22.456.625.684 1.35.684 2.178 0 1.335-.436 2.35-1.31 3.042-.87.693-2.075 1.04-3.612 1.04h-5.36zm2.373-6.465v4.57h2.988c.82 0 1.452-.187 1.895-.56.442-.375.664-.917.664-1.627 0-.755-.186-1.34-.557-1.758-.37-.417-.95-.625-1.738-.625h-3.26zm0-1.767h2.617c.736 0 1.317-.175 1.743-.523.427-.348.64-.84.64-1.48 0-.703-.225-1.225-.674-1.567-.45-.342-1.107-.512-1.973-.512h-2.353v4.082z" fill="#fff"/><path d="M52.105 11.416c0-.65-.244-1.196-.732-1.636-.488-.44-1.354-.81-2.598-1.108-1.504-.358-2.677-.886-3.52-1.582-.843-.697-1.265-1.572-1.265-2.627 0-1.107.454-2.03 1.363-2.774.907-.75 2.084-1.12 3.53-1.12 1.556 0 2.794.42 3.716 1.28.92.85 1.36 1.84 1.33 2.96l-.02.06h-1.84c0-.838-.28-1.51-.83-2.02-.55-.52-1.34-.77-2.37-.77-.96 0-1.69.21-2.21.65-.51.43-.764.99-.764 1.69 0 .62.276 1.132.83 1.55.553.41 1.45.78 2.694 1.09 1.498.37 2.637.92 3.418 1.64.782.72 1.172 1.62 1.172 2.682 0 1.146-.47 2.07-1.41 2.764-.937.7-2.16 1.045-3.67 1.045-1.42 0-2.675-.383-3.765-1.15-1.09-.77-1.62-1.797-1.59-3.086l.02-.06h1.835c0 .91.335 1.603 1.006 2.08.673.474 1.503.71 2.49.71.97 0 1.74-.2 2.307-.61.565-.41.85-.967.85-1.67zm14.355-9.12h-4.57V15h-1.923V2.295h-4.56V.78H66.46v1.515zM79.313 9.16c0 1.738-.54 3.18-1.617 4.326-1.077 1.146-2.475 1.72-4.194 1.72-1.66 0-3.01-.574-4.048-1.72-1.038-1.146-1.558-2.588-1.558-4.326V6.63c0-1.73.52-3.173 1.558-4.325 1.04-1.153 2.388-1.73 4.048-1.73 1.72 0 3.117.576 4.194 1.725 1.078 1.15 1.617 2.593 1.617 4.33v2.53zM77.39 6.61c0-1.3-.354-2.368-1.057-3.202-.703-.833-1.647-1.25-2.832-1.25-1.12 0-2.01.417-2.68 1.25-.66.834-1 1.9-1 3.203v2.55c0 1.32.34 2.39 1 3.23.67.84 1.56 1.25 2.68 1.25 1.19 0 2.14-.41 2.84-1.24.7-.83 1.05-1.9 1.05-3.23V6.61zm13.23 1.798h-6.513v5.088h7.51V15h-9.433V.78h9.326v1.515h-7.403v4.6h6.514v1.513zM96.334.78l4.53 11.554h.06L105.454.78h2.462V15h-1.924V9.375l.195-5.78-.048-.01L101.53 15h-1.28L95.66 3.613l-.05.01.187 5.752V15h-1.924V.78h2.46zm17.03 8.517V15h-1.923V.78h5.44c1.52 0 2.7.392 3.54 1.173.84.78 1.26 1.81 1.26 3.086 0 1.29-.42 2.32-1.26 3.1-.84.77-2.02 1.15-3.53 1.15h-3.51zm0-1.504h3.517c.97 0 1.69-.26 2.16-.776.48-.518.72-1.17.72-1.958 0-.79-.24-1.45-.72-1.98s-1.19-.79-2.15-.79h-3.51v5.5z" fill="#D35400"/></g></svg>